<svg version="1.1" preserveAspectRatio="none" xmlns="http://www.w3.org/2000/svg" width="500" height="500" viewBox="0 0 500 500"><rect width="100%" height="100%" fill="#EFEBE5" fill-opacity="1"/><svg viewBox="52.3134 49.0844 353.3085 210.8922" width="333" height="198.76992090481832" x="83.5px" y="150.615px" xmlns="http://www.w3.org/2000/svg" xmlns:xlink="http://www.w3.org/1999/xlink" preserveAspectRatio="none"><defs></defs><style>.companyName {fill:#FF7E73;fill-opacity:1;}.icon1 {fill:#776464;fill-opacity:1;}.icon2 {fill:#FF7E73;fill-opacity:1;}.icon3 {fill:#493838;fill-opacity:1;}.icon3-str {stroke:#493838;stroke-opacity:1;}</style><g opacity="1" transform="rotate(0 52.3134 219.9766)">
<svg width="353.3085" height="40" x="52.3134" y="219.9766" version="1.1" preserveAspectRatio="none" viewBox="1.04 -29.8 270.28 30.6">
  <g transform="matrix(1 0 0 1 0 0)" class="companyName"><path id="id-D6z1nYkh14" d="M14.48-26.64L14.48-26.64Q18.60-26.64 21.58-24.72Q24.56-22.80 26.12-19.76Q27.68-16.72 27.68-13.36L27.68-13.36Q27.68-7.52 24.06-3.84Q20.44-0.16 14.44 0L14.44 0L1.28 0L1.04-1.28Q2.20-2.04 4.44-2.92L4.44-2.92L4.44-23.92L1.60-24.28L1.64-26.32Q7.40-26.64 14.48-26.64ZM13.56-3.32L13.56-3.32Q17-3.32 19.14-6.08Q21.28-8.84 21.28-13.12L21.28-13.12Q21.28-16.44 19.90-19.32Q18.52-22.20 16.32-23.52L16.32-23.52L10.52-22.92L10.52-3.80Q12.16-3.32 13.56-3.32Z M35.08-22.32L35.08-22.32Q32.56-23.44 30.88-25.56L30.88-25.56Q32.20-28.20 34.32-29.80L34.32-29.80Q36.72-28.52 38.36-26.28L38.36-26.28Q37.24-23.88 35.08-22.32ZM37.68-18L37.68-3.16Q39.56-2.56 40.60-1.96L40.60-1.96L40.44 0L28.96 0L28.84-1.36Q30.04-2.04 31.88-2.68L31.88-2.68L31.88-16.08L28.88-16.44L28.60-18.36Q32.04-19.68 35.72-19.76L35.72-19.76L37.68-18Z M48.72-15.08L48.72-15.08Q48.72-14.24 49.34-13.60Q49.96-12.96 53.12-11.42Q56.28-9.88 57.40-8.48Q58.52-7.08 58.52-5.28L58.52-5.28Q58.52-2.60 56.38-0.90Q54.24 0.80 50.76 0.80L50.76 0.80Q46.84 0.80 42.84-1.32L42.84-1.32L44.84-6Q48.52-3.28 52.28-2.28L52.28-2.28Q53.12-3 53.12-4.08L53.12-4.08Q53.12-5 52.40-5.68Q51.68-6.36 48.64-7.84Q45.60-9.32 44.54-10.66Q43.48-12 43.48-13.76L43.48-13.76Q43.48-16.48 45.84-18.16Q48.20-19.84 51.88-19.84L51.88-19.84Q55.32-19.84 57.72-18.56L57.72-18.56L57.76-17.44Q57.76-15.12 57.08-13.12L57.08-13.12L54-13.12L53.04-16.64Q51.52-17.04 50.24-16.96L50.24-16.96Q48.72-16.44 48.72-15.08Z M81.80-13.24L81.80-3.12Q83.40-2.68 84.68-1.96L84.68-1.96L84.52 0L73.92 0L73.80-1.36L76-2.36L76-11.56Q76-15.48 73.40-15.48L73.40-15.48Q72.08-15.48 69.72-14.12L69.72-14.12L69.72-3.04Q71.12-2.60 72.16-1.96L72.16-1.96L72 0L61.08 0L60.96-1.36Q62.08-2 63.92-2.64L63.92-2.64L63.92-25.80L60.92-26.12L60.64-28.04Q64.08-29.36 67.76-29.44L67.76-29.44L69.72-27.68L69.72-16.04Q73.68-18.96 76.40-19.64L76.40-19.64Q78.24-19.52 79.84-18.40Q81.44-17.28 81.68-15.52L81.68-15.52L81.80-13.24Z M111.84-26.64L111.84-26.64Q115.96-26.64 118.94-24.72Q121.92-22.80 123.48-19.76Q125.04-16.72 125.04-13.36L125.04-13.36Q125.04-7.52 121.42-3.84Q117.80-0.16 111.80 0L111.80 0L98.64 0L98.40-1.28Q99.56-2.04 101.80-2.92L101.80-2.92L101.80-23.92L98.96-24.28L99.00-26.32Q104.76-26.64 111.84-26.64ZM110.92-3.32L110.92-3.32Q114.36-3.32 116.50-6.08Q118.64-8.84 118.64-13.12L118.64-13.12Q118.64-16.44 117.26-19.32Q115.88-22.20 113.68-23.52L113.68-23.52L107.88-22.92L107.88-3.80Q109.52-3.32 110.92-3.32Z M145.04-11.84L142.72-9.52L132.52-9.64Q132.68-6.68 134.36-5.04Q136.04-3.40 138.64-3.40L138.64-3.40Q140.80-3.40 143.76-4.84L143.76-4.84L144.60-2.72L138.32 0.52L137.04 0.60Q132.64 0.60 129.80-2.18Q126.96-4.96 126.96-9.24L126.96-9.24Q126.96-13.72 129.84-16.78Q132.72-19.84 136.84-19.84L136.84-19.84Q140.44-19.84 142.74-17.62Q145.04-15.40 145.04-11.84L145.04-11.84ZM135.44-16.80L135.44-16.80Q133.36-15.60 132.76-12.40L132.76-12.40L139.68-12.76Q139.40-14.48 138.22-15.64Q137.04-16.80 135.44-16.80Z M157.08-3.88L157.08-3.88Q158.20-3.88 160.44-4.40L160.44-4.40L160.88-2.44L154.72 0.64Q153 0.72 151.44-0.52Q149.88-1.76 149.84-3.32L149.84-3.32L149.84-14.88L147.04-14.84L146.88-16.92Q148.40-18 150.12-18.84L150.12-18.84L152.12-24.04L154.84-24.04L155.52-18.84L161-18.84L161.08-17.12L159.12-14.80L155.64-14.80L155.64-5.72Q155.64-4.68 155.96-4.28Q156.28-3.88 157.08-3.88Z M181.28-11.84L178.96-9.52L168.76-9.64Q168.92-6.68 170.60-5.04Q172.28-3.40 174.88-3.40L174.88-3.40Q177.04-3.40 180-4.84L180-4.84L180.84-2.72L174.56 0.52L173.28 0.60Q168.88 0.60 166.04-2.18Q163.20-4.96 163.20-9.24L163.20-9.24Q163.20-13.72 166.08-16.78Q168.96-19.84 173.08-19.84L173.08-19.84Q176.68-19.84 178.98-17.62Q181.28-15.40 181.28-11.84L181.28-11.84ZM171.68-16.80L171.68-16.80Q169.60-15.60 169.00-12.40L169.00-12.40L175.92-12.76Q175.64-14.48 174.46-15.64Q173.28-16.80 171.68-16.80Z M200.08-2.44L194.40 0.56L193.16 0.64Q188.92 0.64 186.14-2.20Q183.36-5.04 183.36-9.48L183.36-9.48Q183.36-14.04 186.14-16.94Q188.92-19.84 193.16-19.84L193.16-19.84Q195.60-19.84 197.58-18.72Q199.56-17.60 200.48-15.52L200.48-15.52L196.12-12.52Q193.76-15.72 191.16-16.56L191.16-16.56Q189.04-14.28 189.04-10.48L189.04-10.48Q189.04-7.32 190.58-5.34Q192.12-3.36 194.92-3.36L194.92-3.36Q196.96-3.36 199.24-4.44L199.24-4.44L200.08-2.44Z M212.00-3.88L212.00-3.88Q213.12-3.88 215.36-4.40L215.36-4.40L215.80-2.44L209.64 0.64Q207.92 0.72 206.36-0.52Q204.80-1.76 204.76-3.32L204.76-3.32L204.76-14.88L201.96-14.84L201.80-16.92Q203.32-18 205.04-18.84L205.04-18.84L207.04-24.04L209.76-24.04L210.44-18.84L215.92-18.84L216.00-17.12L214.04-14.80L210.56-14.80L210.56-5.72Q210.56-4.68 210.88-4.28Q211.20-3.88 212.00-3.88Z M224.40-22.32L224.40-22.32Q221.88-23.44 220.20-25.56L220.20-25.56Q221.52-28.20 223.64-29.80L223.64-29.80Q226.04-28.52 227.68-26.28L227.68-26.28Q226.56-23.88 224.40-22.32ZM227.00-18L227.00-3.16Q228.88-2.56 229.92-1.96L229.92-1.96L229.76 0L218.28 0L218.16-1.36Q219.36-2.04 221.20-2.68L221.20-2.68L221.20-16.08L218.20-16.44L217.92-18.36Q221.36-19.68 225.04-19.76L225.04-19.76L227.00-18Z M252.84-19L252.96-17.24L250.88-16.20Q246.68-5.16 244.56-0.12L244.56-0.12Q243.16 0.32 241.12 0.32L241.12 0.32Q239.76 0.32 238.64 0.12L238.64 0.12L232.92-15.84L230.48-16.92L230.48-19L240.88-19L241.00-17.24L239.04-16.24L241.48-8.52L242.04-5.04L242.76-5.04Q243.96-9.88 245.28-16.16L245.28-16.16L243.24-16.92L243.28-19L252.84-19Z M271.32-11.84L269.00-9.52L258.80-9.64Q258.96-6.68 260.64-5.04Q262.32-3.40 264.92-3.40L264.92-3.40Q267.08-3.40 270.04-4.84L270.04-4.84L270.88-2.72L264.60 0.52L263.32 0.60Q258.92 0.60 256.08-2.18Q253.24-4.96 253.24-9.24L253.24-9.24Q253.24-13.72 256.12-16.78Q259.00-19.84 263.12-19.84L263.12-19.84Q266.72-19.84 269.02-17.62Q271.32-15.40 271.32-11.84L271.32-11.84ZM261.72-16.80L261.72-16.80Q259.64-15.60 259.04-12.40L259.04-12.40L265.96-12.76Q265.68-14.48 264.50-15.64Q263.32-16.80 261.72-16.80Z"/></g>
</svg>
</g><g opacity="1" transform="rotate(0 158.306 49.0844)">
<svg width="141.3234" height="140.8922" x="158.306" y="49.0844" version="1.1" preserveAspectRatio="none" viewBox="9.399996757507324 9.399999618530273 81.95001220703125 81.70000457763672">
  <g transform="matrix(1 0 0 1 0 0)" class="icon1"><path d="M31.4,49.6c-0.5,0-0.9,0.2-1.2,0.5c-0.3,0.3-0.5,0.8-0.5,1.2c0,1.1,1.3,2.7,1.4,2.8c0.1,0.1,0.1,0.1,0.3,0.1  c0.1,0,0.2,0,0.3-0.1c0.2-0.2,1.5-1.6,1.5-2.8C33.2,50.4,32.4,49.6,31.4,49.6z"></path><path d="M31.4,59.7c-0.1,0-0.2,0-0.3,0.1c-0.2,0.2-1.5,1.6-1.5,2.8c0,0.5,0.2,0.9,0.5,1.2s0.8,0.5,1.2,0.5c0,0,0,0,0,0  c0.5,0,0.9-0.2,1.2-0.5c0.3-0.3,0.5-0.8,0.5-1.2c0-1.1-1.3-2.7-1.4-2.8C31.6,59.7,31.5,59.7,31.4,59.7z"></path><path d="M37.3,55.3c-1.1,0-2.7,1.3-2.8,1.4c-0.1,0.1-0.1,0.2-0.1,0.3c0,0.1,0,0.2,0.1,0.3c0.2,0.2,1.6,1.5,2.8,1.5c0,0,0,0,0,0  c0.9,0,1.7-0.8,1.7-1.7c0-0.5-0.2-0.9-0.5-1.2C38.2,55.5,37.8,55.3,37.3,55.3C37.3,55.3,37.3,55.3,37.3,55.3z"></path><path d="M25.8,58.8c1.1,0,2.7-1.3,2.8-1.4c0.1-0.1,0.1-0.2,0.1-0.3c0-0.1,0-0.2-0.1-0.3c-0.2-0.2-1.6-1.5-2.8-1.5c0,0,0,0,0,0  c-0.5,0-0.9,0.2-1.2,0.5C24.2,56.1,24,56.6,24,57s0.2,0.9,0.5,1.2S25.3,58.8,25.8,58.8C25.7,58.8,25.8,58.8,25.8,58.8z"></path><path d="M33.8,55.1C33.8,55.1,33.8,55.1,33.8,55.1c0.2,0,2.2-0.1,3.1-0.9c0.7-0.7,0.7-1.8,0-2.4c-0.7-0.7-1.8-0.7-2.4,0  c-0.8,0.8-1,2.8-1,3c0,0.1,0,0.2,0.1,0.3C33.6,55.1,33.7,55.1,33.8,55.1z"></path><path d="M29.3,58.8c-0.2,0-2.2,0.1-3,0.9c-0.3,0.3-0.5,0.8-0.5,1.2s0.2,0.9,0.5,1.2c0.3,0.3,0.8,0.5,1.2,0.5c0.4,0,0.9-0.2,1.2-0.5  c0.8-0.8,1-2.8,1-3c0-0.1,0-0.2-0.1-0.3S29.4,58.8,29.3,58.8z"></path><path d="M33.8,59c-0.1,0-0.2,0-0.3,0.1c-0.1,0.1-0.1,0.2-0.1,0.3c0,0.2,0.1,2.2,0.9,3c0.3,0.3,0.8,0.5,1.2,0.5c0,0,0,0,0,0  c0.5,0,0.9-0.2,1.2-0.5c0.3-0.3,0.5-0.8,0.5-1.2c0-0.5-0.2-0.9-0.5-1.2C36,59.2,34,59,33.8,59z"></path><path d="M29.2,55.2C29.2,55.2,29.2,55.2,29.2,55.2c0.1,0,0.2,0,0.3-0.1c0.1-0.1,0.1-0.2,0.1-0.3c0-0.2-0.1-2.2-0.9-3  c-0.3-0.3-0.8-0.5-1.2-0.5c0,0,0,0,0,0c-0.5,0-0.9,0.2-1.2,0.5c-0.7,0.7-0.7,1.8,0,2.4C27,55,29,55.2,29.2,55.2z"></path><path d="M31.5,45.4c-6.3,0-11.5,5.1-11.5,11.5s5.1,11.5,11.5,11.5S43,63.2,43,56.9S37.9,45.4,31.5,45.4z M31.5,66.4  c-5.2,0-9.5-4.2-9.5-9.5s4.2-9.5,9.5-9.5s9.5,4.2,9.5,9.5S36.8,66.4,31.5,66.4z"></path><ellipse transform="matrix(0.6992 -0.7149 0.7149 0.6992 -33.7858 83.2389)" cx="82" cy="81.8" rx="1.3" ry="1.3"></ellipse><path d="M60.8,10.7c-0.9-0.9-2-1.3-3.2-1.3s-2.4,0.5-3.2,1.3L37,28.1c-2.2-1.2-4.2-2.1-6.1-2.7c-6.8-2.3-9.5-0.4-9.8-0.1  c-0.2,0.2-0.4,0.4-0.4,0.7c0,0.3,0.1,0.6,0.3,0.8l8.7,8.5l-19,19c-0.9,0.9-1.3,2-1.3,3.2c0,1.2,0.5,2.4,1.3,3.2L40,89.8  c0.9,0.9,2,1.3,3.2,1.3s2.4-0.5,3.2-1.3l17.9-17.9l14.5,14.2c1,1,2.4,1.5,3.8,1.5c1.4,0,2.8-0.5,3.8-1.6c2.1-2.1,2-5.5-0.1-7.6  L71.9,64.3l18.1-18.1c1.8-1.8,1.8-4.7,0-6.4L60.8,10.7z M23.6,26.5c3.4-0.6,14.3,0.3,39.3,24.6l-4.3,4.4c-0.4,0.4-0.4,1,0,1.4  l3.8,3.7l-1.9,2L23.6,26.5z M45,88.4c-1,1-2.6,1-3.6,0L12.3,59.3c-0.5-0.5-0.7-1.1-0.7-1.8s0.3-1.3,0.7-1.8l19-19L59.2,64l-0.7,0.8  c-0.4,0.4-0.4,1,0,1.4l4.4,4.3L45,88.4z M85,79.9c1.3,1.3,1.4,3.4,0.1,4.8c-1.3,1.3-3.4,1.4-4.8,0.1L60.5,65.5l4.7-4.8L85,79.9z   M88.5,44.9L70.5,62.9l-4.5-4.4c-0.2-0.2-0.4-0.3-0.7-0.3c-0.3,0-0.5,0.1-0.7,0.3l-0.7,0.7l-3.1-3l4.3-4.4c0.4-0.4,0.4-1,0-1.4  c-10-9.8-18.8-16.9-26.2-21.2l17-17c1-1,2.6-1,3.6,0l29.1,29.1C89.5,42.3,89.5,43.9,88.5,44.9z"></path><path d="M65.1,24.1c-1.3-1.3-3.6-1.3-4.9,0c-0.7,0.7-1,1.5-1,2.4s0.4,1.8,1,2.4l11.5,11.5c0.7,0.7,1.5,1,2.4,1s1.8-0.4,2.4-1  c0.7-0.7,1-1.5,1-2.4s-0.4-1.8-1-2.4L65.1,24.1z M75.2,39.1c-0.6,0.6-1.5,0.6-2.1,0c0,0,0,0,0,0L61.6,27.6c-0.3-0.3-0.4-0.6-0.4-1  s0.2-0.8,0.4-1c0.3-0.3,0.6-0.4,1-0.4s0.8,0.2,1,0.4L75.2,37c0.3,0.3,0.4,0.6,0.4,1S75.5,38.8,75.2,39.1z"></path></g>
</svg>
</g></svg></svg>